<svg width="256" height="95" viewBox="0 0 256 95" fill="none" xmlns="http://www.w3.org/2000/svg">
<path d="M79.718 16.5409C83.1084 16.5409 85.3683 14.0749 85.3683 10.582C85.3683 7.08913 83.1084 4.72561 79.718 4.72561C76.3264 4.72561 74.0665 7.29404 74.0665 10.7881C74.0665 14.281 76.3264 16.5409 79.718 16.5409Z" fill="white"/>
<path d="M156.249 67.3963C156.249 66.2657 156.559 64.7254 157.071 62.979L175.463 0L155.942 0.719538V1.95253C163.544 2.36352 165.599 3.90505 164.675 7.39793L159.537 26.6088L148.544 62.8765C148.032 64.6229 147.722 66.2657 147.722 67.6024C147.722 72.0197 150.497 74.382 155.737 74.382C159.742 74.382 165.805 72.5331 166.832 72.1221V71.1977C158.819 71.6087 156.249 70.6843 156.249 67.3963Z" fill="white"/>
<path d="M250.35 25.6848C247.268 25.6848 245.213 28.0483 245.213 31.2327C245.213 34.1096 247.164 36.7805 250.761 38.116C250.246 41.4039 248.912 47.4652 241.719 58.767L235.144 69.1432H234.939L231.343 45.2054L228.261 26.1983L213.466 27.6373V28.8703C219.426 28.7667 220.453 29.5887 221.173 33.4937L224.974 55.1705L228.878 77.773C223.124 87.1222 217.885 89.8968 214.083 90.8212C214.494 90.1017 214.699 88.6626 214.699 87.3271C214.699 83.9379 212.439 81.7805 209.46 81.7805C206.48 81.7805 204.118 84.3489 204.118 87.5332C204.118 91.1297 206.48 94.2116 211.823 94.2116C218.192 94.2116 224.357 90.5127 241.822 62.7734C255.28 41.4039 256 37.6025 256 32.5681C256 28.8703 253.843 25.6848 250.35 25.6848Z" fill="white"/>
<path d="M21.3683 36.7807V4.10946H29.5882C44.2792 4.10946 48.5941 10.2744 48.5941 19.7261C48.5941 29.8974 45.7183 36.7807 31.1285 36.7807H21.3683ZM92.4576 73.6632V72.4302C85.9841 72.3277 84.6487 71.8143 84.6487 68.3214V26.3009L68.5198 26.7119V27.9449C74.4774 28.0473 76.019 30.1023 76.019 33.1842V68.3214C76.019 71.216 74.9508 71.4469 71.1977 71.7118C62.0533 71.7118 60.3069 70.3764 58.6629 60.7186L58.047 56.5062C56.403 45.5141 53.1151 38.7332 37.9106 38.0137V37.7051C53.5261 35.4453 59.6898 28.3559 59.6898 19.4176C59.6898 9.55486 51.265 2.05448 30.3065 2.05448H0V3.28746C9.14319 3.59601 11.6092 6.26689 11.6092 10.6854V64.931C11.6092 69.4519 9.14319 72.0192 0 72.3277V73.6632H32.6701V72.3277C23.0122 72.0192 21.3683 69.6568 21.3683 64.931V38.8357H30.6163C42.8413 38.8357 45.6158 40.9931 46.8488 51.2668L47.9782 61.0271C49.1087 70.4788 51.1625 74.2803 60.7179 74.2803C63.2757 74.2803 65.9949 74.1743 68.5198 73.6632H92.4576Z" fill="white"/>
<path d="M119.679 72.636C114.44 72.636 110.331 70.1701 108.276 64.0063V35.5475C111.563 31.6436 115.056 29.3837 119.679 29.3837C128.207 29.3837 132.933 38.6294 132.933 49.8287C132.933 64.4173 128.618 72.636 119.679 72.636ZM123.893 25.6848C117.522 25.6848 112.284 28.8703 108.072 33.39V26.3018L92.1463 26.7128V27.9446C98.1052 28.0483 99.6455 30.1021 99.6455 33.1851V88.0478C99.6455 91.5407 98.1052 92.0541 92.1463 92.1566V93.3896H118.037V92.1566C110.331 92.1566 108.276 91.5407 108.276 88.0478V71.1981C112.078 73.2531 115.467 74.4861 120.708 74.4861C133.962 74.4861 142.489 63.6989 142.489 49.3153C142.489 35.856 135.707 25.6848 123.893 25.6848Z" fill="white"/>
<path d="M200.116 27.9448C203.403 27.9448 205.664 29.7949 205.664 33.9036C205.664 40.7869 202.274 48.9032 182.136 49.5203C184.706 38.116 192.411 27.9448 200.116 27.9448ZM208.233 64.1089L206.896 62.9784C202.992 67.9103 197.547 71.4032 192.104 71.4032C184.089 71.4032 181.314 66.6773 181.314 57.2256C181.314 55.1706 181.52 53.1156 181.829 51.0618C203.507 51.0618 213.575 44.0749 213.575 36.0611C213.575 29.9998 209.156 25.7873 200.527 25.7873C184.911 25.7873 172.377 42.226 172.377 57.4305C172.377 70.1702 181.109 74.5875 189.123 74.5875C196.315 74.5875 202.581 71.1983 208.233 64.1089Z" fill="white"/>
</svg>
