<svg width="367" height="128" viewBox="0 0 367 128" fill="none" xmlns="http://www.w3.org/2000/svg">
<path d="M169.947 41.3695C173.729 41.3695 176.249 38.619 176.249 34.7232C176.249 30.8274 173.729 28.1912 169.947 28.1912C166.164 28.1912 163.644 31.056 163.644 34.9531C163.644 38.8489 166.164 41.3695 169.947 41.3695Z" fill="white"/>
<path d="M255.307 98.0913C255.307 96.8304 255.652 95.1123 256.224 93.1644L276.736 22.9205L254.964 23.723V25.0983C263.443 25.5567 265.735 27.276 264.705 31.1718L258.974 52.5987L246.713 93.0502C246.141 94.9981 245.796 96.8304 245.796 98.3212C245.796 103.248 248.891 105.883 254.736 105.883C259.203 105.883 265.965 103.821 267.11 103.362V102.331C258.173 102.79 255.307 101.759 255.307 98.0913Z" fill="white"/>
<path d="M360.262 51.5682C356.825 51.5682 354.533 54.2044 354.533 57.756C354.533 60.9649 356.709 63.9439 360.721 65.4334C360.147 69.1006 358.658 75.8611 350.636 88.4667L343.302 100.04H343.074L339.063 73.3406L335.625 52.1409L319.124 53.746V55.1212C325.771 55.0056 326.917 55.9224 327.719 60.2779L331.959 84.4553L336.313 109.665C329.896 120.093 324.052 123.187 319.812 124.218C320.27 123.416 320.499 121.811 320.499 120.321C320.499 116.541 317.978 114.135 314.655 114.135C311.332 114.135 308.697 117 308.697 120.551C308.697 124.563 311.332 128 317.291 128C324.395 128 331.271 123.874 350.751 92.9351C365.762 69.1006 366.564 64.8607 366.564 59.2455C366.564 55.1212 364.158 51.5682 360.262 51.5682Z" fill="white"/>
<path d="M104.866 63.9441V27.504H114.035C130.42 27.504 135.233 34.3801 135.233 44.9222C135.233 56.2667 132.025 63.9441 115.753 63.9441H104.866ZM184.156 105.081V103.706C176.936 103.592 175.447 103.019 175.447 99.1232V52.2553L157.457 52.7138V54.089C164.102 54.2032 165.821 56.4953 165.821 59.9327V99.1232C165.821 102.352 164.63 102.609 160.444 102.905C150.245 102.905 148.297 101.415 146.463 90.6433L145.776 85.945C143.943 73.6849 140.275 66.1218 123.317 65.3193V64.9752C140.734 62.4546 147.609 54.5474 147.609 44.578C147.609 33.5776 138.212 25.212 114.836 25.212H81.0332V26.5872C91.2311 26.9313 93.9815 29.9103 93.9815 34.8385V95.3416C93.9815 100.384 91.2311 103.248 81.0332 103.592V105.081H117.472V103.592C106.7 103.248 104.866 100.613 104.866 95.3416V66.2361H115.181C128.817 66.2361 131.911 68.6424 133.286 80.1013L134.546 90.9874C135.807 101.529 138.098 105.769 148.755 105.769C151.608 105.769 154.641 105.651 157.457 105.081H184.156Z" fill="white"/>
<path d="M214.518 103.936C208.675 103.936 204.092 101.185 201.8 94.3103V62.5686C205.466 58.2144 209.362 55.6938 214.518 55.6938C224.029 55.6938 229.3 66.006 229.3 78.4972C229.3 94.7687 224.488 103.936 214.518 103.936ZM219.218 51.5681C212.112 51.5681 206.27 55.1211 201.571 60.1623V52.2564L183.809 52.7148V54.0887C190.455 54.2043 192.173 56.495 192.173 59.9337V121.125C192.173 125.021 190.455 125.594 183.809 125.708V127.083H212.686V125.708C204.092 125.708 201.8 125.021 201.8 121.125V102.332C206.04 104.624 209.82 105.999 215.665 105.999C230.448 105.999 239.959 93.9675 239.959 77.9246C239.959 62.9127 232.395 51.5681 219.218 51.5681Z" fill="white"/>
<path d="M304.234 54.0889C307.9 54.0889 310.422 56.1524 310.422 60.7351C310.422 68.4124 306.641 77.465 284.18 78.1533C287.046 65.4335 295.64 54.0889 304.234 54.0889ZM313.287 94.4247L311.796 93.1638C307.442 98.6647 301.368 102.56 295.297 102.56C286.358 102.56 283.263 97.2894 283.263 86.7474C283.263 84.4554 283.493 82.1633 283.837 79.8726C308.016 79.8726 319.245 72.0797 319.245 63.1414C319.245 56.3809 314.317 51.6826 304.693 51.6826C287.275 51.6826 273.295 70.0175 273.295 86.976C273.295 101.185 283.035 106.112 291.973 106.112C299.994 106.112 306.983 102.332 313.287 94.4247Z" fill="white"/>
<path fill-rule="evenodd" clip-rule="evenodd" d="M55.8676 68.202C55.8476 68.0075 55.8298 67.8253 55.7998 67.6431C55.5398 65.6833 55.1576 63.7862 54.6698 61.964C51.7678 61.1926 48.9746 58.684 47.218 54.4795C44.7782 57.6745 39.3418 59.9025 33.0132 59.9081H33.0099C26.6814 59.9025 21.245 57.6745 18.8051 54.4795C17.0963 58.5722 14.4032 61.0574 11.5844 61.8992C11.5311 61.9159 11.4778 61.9394 11.4233 61.9539C10.5467 65.2306 10.0145 68.7521 9.90006 72.4334C9.2001 83.2337 9.31343 86.5427 10.9011 98.6208C12.4199 97.2078 14.4331 96.3257 16.6664 96.3257C21.3772 96.3257 25.1881 100.169 25.1881 104.905V105.079H40.7973L40.795 104.905C40.795 100.169 44.6137 96.3257 49.3224 96.3257C51.51 96.3257 53.4821 97.1787 54.9898 98.5426C56.5631 86.621 56.7786 82.99 56.2053 73.0706C56.1742 71.4161 56.0609 69.7906 55.8676 68.202Z" fill="#653614"/>
<path fill-rule="evenodd" clip-rule="evenodd" d="M64.9829 37.9366C61.4687 21.1979 52.1159 14.1706 47.8061 16.6737L17.9744 16.639C13.5646 14.5261 4.48957 21.5065 1.04087 37.9366C-4.39661 63.8323 12.9554 68.4815 18.8051 54.4795C21.245 57.6745 26.6814 59.9014 33.0099 59.9081C33.011 59.9081 33.0113 59.9084 33.0113 59.9084C39.341 59.9017 44.777 57.6745 47.218 54.4795C53.0666 68.4815 70.4193 63.8323 64.9829 37.9366Z" fill="#653614"/>
<path fill-rule="evenodd" clip-rule="evenodd" d="M8.14385 104.905C8.14385 100.168 11.957 96.325 16.6656 96.325C21.3776 96.325 25.1881 100.168 25.1881 104.905V105.079L8.14385 105.079V104.905Z" fill="white"/>
<path fill-rule="evenodd" clip-rule="evenodd" d="M40.795 104.905C40.795 100.168 44.6137 96.3257 49.3224 96.3257C54.031 96.3257 57.8411 100.168 57.8411 104.905V105.079H40.7965L40.795 104.905Z" fill="#4D2705"/>
<path fill-rule="evenodd" clip-rule="evenodd" d="M33.0818 59.8999H33.0807C26.8566 59.8943 21.5002 57.7378 19.0015 54.6278C19.1792 67.4112 25.4333 77.6839 33.1274 77.6839C40.8436 77.6839 47.1122 67.3509 47.2544 54.5148C44.7956 57.6864 39.3826 59.8932 33.0818 59.8999Z" fill="white"/>
<path fill-rule="evenodd" clip-rule="evenodd" d="M18.4372 37.7708C18.4372 35.5405 20.2337 33.735 22.4481 33.735C24.6602 33.735 26.4556 35.5405 26.4556 37.7708C26.4556 39.9954 24.6602 41.8054 22.4481 41.8054C20.2337 41.8054 18.4372 39.9954 18.4372 37.7708Z" fill="black"/>
<path fill-rule="evenodd" clip-rule="evenodd" d="M39.3232 37.7708C39.3232 35.5405 41.1209 33.735 43.3341 33.735C45.5473 33.735 47.3439 35.5405 47.3439 37.7708C47.3439 39.9954 45.5473 41.8054 43.3341 41.8054C41.1209 41.8054 39.3232 39.9954 39.3232 37.7708Z" fill="black"/>
<path d="M27.7597 46.5104C27.7597 44.3752 29.4796 42.6424 31.5995 42.6424H34.1749C36.2959 42.6424 38.0213 44.3752 38.0213 46.5104C38.0213 48.6479 36.2959 50.3773 34.1749 50.3773H31.5995C29.4796 50.3773 27.7597 48.6479 27.7597 46.5104Z" fill="black"/>
<path d="M34.1749 50.3773H31.5995C30.8351 50.3773 30.1266 50.1469 29.5289 49.759V51.3107C29.5289 53.2447 30.9122 54.8176 33.0254 54.8176C35.143 54.8176 36.4941 53.2447 36.4941 51.3107V49.5757C35.8474 50.072 35.0482 50.3773 34.1749 50.3773Z" fill="#E7989A"/>
<path d="M47.8065 19.051H17.9748V13.0689H47.8065V19.051Z" fill="#FFC445"/>
<path d="M17.964 19.0507C15.9452 21.8746 18.9284 26.1138 32.8909 26.1138C46.8524 26.1138 49.8356 21.8746 47.8168 19.0507H17.964Z" fill="black"/>
<path d="M47.8065 13.0689L50.0151 4.17322C45.7387 1.4533 37.8658 0 32.8905 0C27.9141 0 20.0412 1.4533 15.7659 4.17322L17.9748 13.0689H47.8065Z" fill="black"/>
<path d="M32.8771 7.00956C33.67 7.00956 34.1566 6.63727 34.1566 5.88171C34.1566 5.20045 33.649 4.81802 32.8981 4.81802H32.1363V7.00956H32.8771ZM33.9662 10.925L32.1581 8.38223H32.1363V10.925H30.2234V3.05196H32.7815C33.5962 3.05196 34.2196 3.15833 34.6323 3.33899C35.4781 3.72225 36.0704 4.6475 36.0704 5.76522C36.0704 7.00956 35.3304 8.03104 34.1248 8.24378L36.25 10.925H33.9662Z" fill="white"/>
</svg>
